<?xml version="1.0" encoding="UTF-8"?>
<svg version="1.1" xmlns="http://www.w3.org/2000/svg" width="500" height="500">
<path d="M0 0 C0.928125 0.804375 0.928125 0.804375 1.875 1.625 C1.875 2.285 1.875 2.945 1.875 3.625 C2.535 3.625 3.195 3.625 3.875 3.625 C3.875 4.285 3.875 4.945 3.875 5.625 C4.535 5.625 5.195 5.625 5.875 5.625 C7.39240976 7.32403023 8.840128 9.08572723 10.25 10.875 C12.46729313 13.67813312 14.6055752 16.36201197 17.1640625 18.859375 C18.875 20.625 18.875 20.625 18.875 22.625 C19.535 22.625 20.195 22.625 20.875 22.625 C20.875 23.285 20.875 23.945 20.875 24.625 C21.535 24.625 22.195 24.625 22.875 24.625 C24.3828125 26.0859375 24.3828125 26.0859375 26 28 C26.53882812 28.62648437 27.07765625 29.25296875 27.6328125 29.8984375 C28.875 31.625 28.875 31.625 28.875 33.625 C30.36 34.12 30.36 34.12 31.875 34.625 C33.48046875 36.18359375 33.48046875 36.18359375 35.0625 38.0625 C35.59230469 38.67996094 36.12210937 39.29742187 36.66796875 39.93359375 C37.875 41.625 37.875 41.625 37.875 43.625 C38.535 43.625 39.195 43.625 39.875 43.625 C41.21484375 44.953125 41.21484375 44.953125 42.8125 46.875 C45.08179462 49.55776779 47.38170994 52.19155115 49.78125 54.7578125 C50.28148682 55.29374023 50.78172363 55.82966797 51.29711914 56.38183594 C52.3006602 57.45344383 53.3076231 58.5218583 54.31811523 59.58691406 C57.875 63.40430131 57.875 63.40430131 57.875 65.625 C58.535 65.625 59.195 65.625 59.875 65.625 C61.3828125 67.0859375 61.3828125 67.0859375 63 69 C63.53882813 69.62648438 64.07765625 70.25296875 64.6328125 70.8984375 C65.875 72.625 65.875 72.625 65.875 74.625 C66.535 74.625 67.195 74.625 67.875 74.625 C67.875 75.285 67.875 75.945 67.875 76.625 C68.535 76.625 69.195 76.625 69.875 76.625 C71.39240976 78.32403023 72.840128 80.08572723 74.25 81.875 C76.46729313 84.67813312 78.6055752 87.36201197 81.1640625 89.859375 C82.875 91.625 82.875 91.625 82.875 93.625 C83.865 93.955 84.855 94.285 85.875 94.625 C87.27734375 96.015625 87.27734375 96.015625 88.8125 97.875 C91.14562134 100.64055332 93.52267836 103.34032395 96 105.9765625 C96.81803101 106.84812988 96.81803101 106.84812988 97.65258789 107.73730469 C98.75247194 108.90529452 99.85579211 110.07005883 100.96264648 111.23144531 C104.875 115.4047885 104.875 115.4047885 104.875 117.625 C105.535 117.625 106.195 117.625 106.875 117.625 C108.56640625 119.48828125 108.56640625 119.48828125 110.4375 121.9375 C111.05753906 122.73800781 111.67757812 123.53851563 112.31640625 124.36328125 C115.10491377 128.40976209 115.27650217 131.80697396 114.875 136.625 C112.02189007 142.92561777 107.57327792 148.57079194 102.875 153.625 C102.215 153.625 101.555 153.625 100.875 153.625 C100.5346875 154.3984375 100.5346875 154.3984375 100.1875 155.1875 C98.39282382 158.52047005 96.37534985 161.77203671 93.875 164.625 C93.215 164.625 92.555 164.625 91.875 164.625 C91.875 165.285 91.875 165.945 91.875 166.625 C91.215 166.625 90.555 166.625 89.875 166.625 C89.6171875 167.18703125 89.359375 167.7490625 89.09375 168.328125 C87.73330223 170.89204579 86.14711038 173.07726365 84.375 175.375 C83.7665625 176.17421875 83.158125 176.9734375 82.53125 177.796875 C81.9846875 178.40015625 81.438125 179.0034375 80.875 179.625 C80.215 179.625 79.555 179.625 78.875 179.625 C78.62621094 180.18316406 78.37742187 180.74132812 78.12109375 181.31640625 C76.65885602 184.0254423 74.90655987 186.1946432 72.9375 188.5625 C72.13828125 189.52671875 71.3390625 190.4909375 70.515625 191.484375 C68.70178162 193.64840232 66.8768444 195.80272321 65.046875 197.953125 C64.57427246 198.5085498 64.10166992 199.06397461 63.61474609 199.63623047 C62.66810361 200.7480415 61.72052154 201.85905326 60.77197266 202.96923828 C57.65820372 206.63425391 54.73977164 210.3834147 51.99609375 214.33203125 C51.62613281 214.75871094 51.25617188 215.18539062 50.875 215.625 C50.215 215.625 49.555 215.625 48.875 215.625 C48.215 217.275 47.555 218.925 46.875 220.625 C46.215 220.625 45.555 220.625 44.875 220.625 C44.6171875 221.18703125 44.359375 221.7490625 44.09375 222.328125 C42.73330223 224.89204579 41.14711038 227.07726365 39.375 229.375 C38.7665625 230.17421875 38.158125 230.9734375 37.53125 231.796875 C36.9846875 232.40015625 36.438125 233.0034375 35.875 233.625 C35.215 233.625 34.555 233.625 33.875 233.625 C33.565625 234.24375 33.25625 234.8625 32.9375 235.5 C32.25 236.875 31.5625 238.25 30.875 239.625 C30.215 239.625 29.555 239.625 28.875 239.625 C28.65328125 240.15609375 28.4315625 240.6871875 28.203125 241.234375 C26.41091773 244.46034809 24.03953332 247.10835561 21.625 249.875 C17.86838633 254.22757067 14.28073896 258.60487123 10.99609375 263.33203125 C10.62613281 263.75871094 10.25617188 264.18539063 9.875 264.625 C9.215 264.625 8.555 264.625 7.875 264.625 C7.5346875 265.4603125 7.5346875 265.4603125 7.1875 266.3125 C5.19414835 269.82459577 2.51380251 272.80559875 -1.125 274.625 C-10.99429792 275.88338043 -19.81214249 273.166905 -28.03125 267.6875 C-32.30530491 264.36882207 -35.93429238 261.02398012 -39.125 256.625 C-39.125 255.965 -39.125 255.305 -39.125 254.625 C-39.785 254.625 -40.445 254.625 -41.125 254.625 C-41.8354474 253.45108476 -42.51726744 252.25983071 -43.1875 251.0625 C-43.76177734 250.07056641 -43.76177734 250.07056641 -44.34765625 249.05859375 C-45.46850105 245.54961731 -45.00814451 243.18092106 -44.125 239.625 C-42.234375 236.74609375 -42.234375 236.74609375 -39.875 234.0625 C-39.06417969 233.12664062 -38.25335938 232.19078125 -37.41796875 231.2265625 C-36.28294922 229.93878906 -36.28294922 229.93878906 -35.125 228.625 C-34.1412877 227.39946821 -33.16098776 226.17116918 -32.1875 224.9375 C-31.506875 224.174375 -30.82625 223.41125 -30.125 222.625 C-29.465 222.625 -28.805 222.625 -28.125 222.625 C-28.125 221.965 -28.125 221.305 -28.125 220.625 C-27.465 220.625 -26.805 220.625 -26.125 220.625 C-25.85244385 220.03025879 -25.5798877 219.43551758 -25.29907227 218.82275391 C-24.15699951 216.68490011 -23.00207268 215.20888243 -21.33984375 213.4609375 C-20.80939453 212.89632812 -20.27894531 212.33171875 -19.73242188 211.75 C-19.18134766 211.1725 -18.63027344 210.595 -18.0625 210 C-14.15929271 206.13173691 -14.15929271 206.13173691 -11.125 201.625 C-10.465 201.625 -9.805 201.625 -9.125 201.625 C-9.125 200.965 -9.125 200.305 -9.125 199.625 C-8.465 199.625 -7.805 199.625 -7.125 199.625 C-6.85695557 199.03477051 -6.58891113 198.44454102 -6.31274414 197.83642578 C-5.11551006 195.60733096 -3.86248805 194.06625218 -2.12109375 192.2421875 C-1.54552734 191.63246094 -0.96996094 191.02273438 -0.37695312 190.39453125 C0.22181641 189.76933594 0.82058594 189.14414062 1.4375 188.5 C2.62832327 187.24931717 3.81722111 185.99679738 5.00390625 184.7421875 C5.79390015 183.91630127 5.79390015 183.91630127 6.59985352 183.07373047 C7.97737804 181.63295511 7.97737804 181.63295511 8.875 179.625 C9.535 179.625 10.195 179.625 10.875 179.625 C11.14755615 179.03025879 11.4201123 178.43551758 11.70092773 177.82275391 C12.84300049 175.68490011 13.99792732 174.20888243 15.66015625 172.4609375 C16.19060547 171.89632812 16.72105469 171.33171875 17.26757812 170.75 C17.81865234 170.1725 18.36972656 169.595 18.9375 169 C22.84070729 165.13173691 22.84070729 165.13173691 25.875 160.625 C26.535 160.625 27.195 160.625 27.875 160.625 C27.875 159.965 27.875 159.305 27.875 158.625 C28.535 158.625 29.195 158.625 29.875 158.625 C30.16375 158.026875 30.4525 157.42875 30.75 156.8125 C31.875 154.625 31.875 154.625 33.875 151.625 C34.535 151.625 35.195 151.625 35.875 151.625 C36.101875 151.08359375 36.32875 150.5421875 36.5625 149.984375 C38.28795108 146.88267128 40.48793213 144.49799899 42.875 141.875 C43.32617188 141.36839844 43.77734375 140.86179687 44.2421875 140.33984375 C45.40860812 139.05954183 46.63783971 137.83708271 47.875 136.625 C48.535 136.625 49.195 136.625 49.875 136.625 C49.875 134.975 49.875 133.325 49.875 131.625 C49.215 131.625 48.555 131.625 47.875 131.625 C47.875 130.965 47.875 130.305 47.875 129.625 C47.215 129.625 46.555 129.625 45.875 129.625 C44.51538086 128.23974609 44.51538086 128.23974609 42.90234375 126.2734375 C37.54404961 119.96907172 31.55627774 114.29685624 25.64257812 108.51953125 C24.77181641 107.65972656 23.90105469 106.79992187 23.00390625 105.9140625 C22.21056885 105.13756348 21.41723145 104.36106445 20.59985352 103.56103516 C18.875 101.625 18.875 101.625 18.875 99.625 C18.215 99.625 17.555 99.625 16.875 99.625 C16.875 98.965 16.875 98.305 16.875 97.625 C16.215 97.625 15.555 97.625 14.875 97.625 C14.875 96.965 14.875 96.305 14.875 95.625 C14.215 95.625 13.555 95.625 12.875 95.625 C12.875 94.965 12.875 94.305 12.875 93.625 C12.215 93.625 11.555 93.625 10.875 93.625 C10.875 92.965 10.875 92.305 10.875 91.625 C10.215 91.625 9.555 91.625 8.875 91.625 C7.25 90.25 7.25 90.25 5.875 88.625 C5.875 87.965 5.875 87.305 5.875 86.625 C5.215 86.625 4.555 86.625 3.875 86.625 C2.640625 85.3671875 2.640625 85.3671875 1.125 83.5 C-3.11045856 78.47885937 -7.78429058 73.93793511 -12.50097656 69.37451172 C-13.09749023 68.78943848 -13.69400391 68.20436523 -14.30859375 67.6015625 C-14.85056396 67.07643066 -15.39253418 66.55129883 -15.95092773 66.01025391 C-17.125 64.625 -17.125 64.625 -17.125 62.625 C-17.72441406 62.36332031 -18.32382812 62.10164063 -18.94140625 61.83203125 C-21.25561764 60.55279812 -22.42159445 59.36249558 -24.0625 57.3125 C-27.50771124 53.04197354 -31.39470758 49.29021971 -35.421875 45.57421875 C-36.57313433 44.48720965 -37.72417303 43.39996683 -38.875 42.3125 C-39.46410156 41.78205078 -40.05320312 41.25160156 -40.66015625 40.70507812 C-43.70140436 37.78617907 -45.46482319 35.6685994 -46.078125 31.421875 C-46.17982685 23.18402507 -41.36685339 17.57227879 -36.125 11.625 C-31.68029166 7.08999285 -26.92677635 4.14022096 -21.125 1.625 C-20.48691406 1.32464844 -19.84882812 1.02429688 -19.19140625 0.71484375 C-12.92650776 -1.9953236 -6.34932828 -2.79370445 0 0 Z " fill="#050505" transform="translate(65.125,154.375)"/>
<path d="M0 0 C1.39089468 -0.00551503 1.39089468 -0.00551503 2.80988824 -0.01114148 C5.9304238 -0.02219243 9.05092606 -0.02602457 12.17147827 -0.02983093 C14.40359605 -0.03609456 16.63571278 -0.04274127 18.86782837 -0.04974365 C24.94243782 -0.06716368 31.0170394 -0.07770836 37.09166765 -0.08594918 C40.88635298 -0.09109768 44.68103585 -0.09717351 48.47571945 -0.10346031 C58.9860253 -0.12033178 69.49633 -0.13496604 80.00664711 -0.14220905 C82.73379137 -0.14411889 85.46093561 -0.14603923 88.18807983 -0.147995 C89.20478414 -0.14872061 89.20478414 -0.14872061 90.24202792 -0.14946087 C101.2159713 -0.15775681 112.18980552 -0.1830861 123.16370125 -0.21557567 C134.43571284 -0.24867513 145.70767109 -0.26632791 156.97973764 -0.26985329 C163.30639518 -0.27220437 169.63288023 -0.2811725 175.95949173 -0.30631447 C181.91355153 -0.32959307 187.86732525 -0.33382906 193.82141876 -0.32355309 C196.00427832 -0.32305755 198.18715195 -0.32938301 200.36996841 -0.34310913 C203.35571126 -0.36083047 206.34042777 -0.35372022 209.32617188 -0.34057617 C210.18504615 -0.35154542 211.04392043 -0.36251466 211.92882121 -0.37381631 C218.42389953 -0.30503351 224.69858409 1.11073882 229.63864481 5.59448451 C233.7144142 10.30699446 235.32528964 13.88880932 235.29403687 20.08467102 C235.29919312 21.10431946 235.30434937 22.1239679 235.30966187 23.17451477 C235.03927222 26.20049306 234.31644823 28.40542749 233.04403687 31.14717102 C232.38403687 31.14717102 231.72403687 31.14717102 231.04403687 31.14717102 C230.67278687 32.04435852 230.67278687 32.04435852 230.29403687 32.95967102 C227.96067801 37.04304902 224.42000826 38.76329814 220.04403687 40.14717102 C216.95083602 40.44128209 213.87022151 40.42558961 210.76490784 40.41459656 C209.8270632 40.41912767 208.88921856 40.42365878 207.92295438 40.4283272 C204.77861351 40.44099314 201.63444536 40.4393494 198.49008179 40.43769836 C196.23634111 40.44368225 193.98260249 40.45048747 191.72886658 40.45805359 C185.60484293 40.47573524 179.48087516 40.48040989 173.35682845 40.48168516 C168.24500541 40.48358374 163.13319541 40.49094082 158.02137738 40.49802935 C146.64977594 40.51338865 135.27820911 40.51936653 123.9066008 40.51801865 C123.22452062 40.51793874 122.54244044 40.51785882 121.83969116 40.51777649 C121.15677576 40.51769473 120.47386035 40.51761297 119.77025054 40.51752873 C108.70522112 40.516716 97.64032788 40.53585087 86.57533785 40.56405322 C75.20720208 40.59279901 63.83915337 40.60622652 52.47097284 40.60486567 C46.09129099 40.60435567 39.71176324 40.61006002 33.33211327 40.63122177 C27.33123304 40.65058333 21.33065426 40.6507426 15.32976341 40.63618851 C13.12874919 40.63409673 10.9277162 40.63882318 8.72673416 40.65090942 C5.7188409 40.66635529 2.71198783 40.65705755 -0.29588318 40.64164734 C-1.16408796 40.65193447 -2.03229273 40.66222159 -2.92680675 40.67282045 C-10.21524976 40.59046911 -15.28755873 38.40951389 -20.83096313 33.70967102 C-25.11671163 28.54156254 -25.40898557 23.67731636 -25.25674438 17.15498352 C-24.81835707 12.77111036 -23.88495306 9.49458807 -20.95596313 6.14717102 C-14.18721379 1.25998738 -8.24173944 -0.00174199 0 0 Z " fill="#080808" transform="translate(242.95596313476563,362.8528289794922)"/>
<path d="M0 0 C0.95321528 -0.0055344 1.90643056 -0.01106879 2.88853115 -0.0167709 C6.073004 -0.03035148 9.25668959 -0.01542193 12.44114685 -0.00050354 C14.72798495 -0.00428762 17.01482076 -0.00978839 19.301651 -0.01687622 C25.50608445 -0.03083556 31.71024073 -0.01965778 37.91465878 -0.00316501 C44.40745337 0.01068609 50.90023187 0.0042254 57.39303589 0.0007019 C68.29534976 -0.00199997 79.19755101 0.0113864 90.09983826 0.03465271 C101.3121194 0.05857779 112.52425492 0.06565427 123.73655701 0.05516052 C137.25704544 0.04252914 150.77742199 0.04504565 164.29791069 0.06081963 C169.45926932 0.06657978 174.62057921 0.06649651 179.78193855 0.06175423 C185.85833351 0.0569843 191.93452675 0.06708708 198.01088333 0.08870888 C200.24175397 0.0942764 202.47264399 0.09474237 204.70351601 0.08975601 C207.74690427 0.08380628 210.78967518 0.09630279 213.83300781 0.11352539 C214.71734688 0.10751535 215.60168594 0.1015053 216.51282316 0.09531313 C222.94752131 0.16160275 227.06220878 1.53004911 232.04051208 5.81370544 C236.73719535 11.27201302 237.917019 15.64972434 237.70457458 22.74729919 C237.00501978 28.22714516 234.84764366 32.00657387 230.97801208 35.87620544 C225.08316717 39.52539515 219.68062049 39.79105775 212.95362854 39.76190186 C211.54557994 39.76764018 211.54557994 39.76764018 210.10908592 39.77349442 C206.96784397 39.7838022 203.82678556 39.77983646 200.68553162 39.77586365 C198.43164399 39.78021135 196.17775785 39.7853947 193.9238739 39.79135132 C187.80403587 39.80474645 181.68425957 39.80531938 175.56440973 39.80278802 C170.4550228 39.80171862 165.34564837 39.8066009 160.23626411 39.81139344 C147.49266102 39.823125 134.7491026 39.82226253 122.00549994 39.81583663 C110.94702397 39.81066852 99.88863611 39.82192082 88.83017756 39.84093485 C77.46653337 39.86032333 66.102943 39.86827618 54.73927772 39.8648116 C48.36299494 39.86299839 41.98679285 39.86563878 35.61052322 39.87952614 C29.61377087 39.89209807 23.61719489 39.89016621 17.62044525 39.87711525 C15.42104661 39.87474853 13.22163557 39.87748757 11.02225113 39.88573837 C8.01675049 39.89619919 5.01184238 39.88811015 2.00636292 39.87542725 C1.13884026 39.88280153 0.2713176 39.89017582 -0.62249362 39.89777356 C-6.90652285 39.84209909 -12.97296883 39.06359565 -17.70558167 34.52854919 C-18.16062073 33.83890076 -18.61565979 33.14925232 -19.08448792 32.43870544 C-19.55757385 31.74647888 -20.03065979 31.05425232 -20.51808167 30.34104919 C-23.73223436 25.10275882 -23.3615134 19.49222679 -22.64698792 13.50120544 C-20.35922968 7.81449213 -17.09369606 4.34260764 -11.72742856 1.35823238 C-7.90421662 -0.21672032 -4.08220567 -0.04444988 0 0 Z " fill="#030203" transform="translate(240.64698791503906,178.49879455566406)"/>
<path d="M0 0 C0.98962738 -0.00571014 1.97925476 -0.01142029 2.99887085 -0.01730347 C4.0732843 -0.01842133 5.14769775 -0.01953918 6.25466919 -0.02069092 C7.3950766 -0.02565582 8.53548401 -0.03062073 9.71044922 -0.03573608 C13.48056645 -0.05033348 17.25064163 -0.05715511 21.02078247 -0.06268311 C23.64245607 -0.0684358 26.26412965 -0.07419352 28.88580322 -0.07995605 C33.67976335 -0.08951762 38.47371442 -0.09542068 43.26768291 -0.09845281 C50.31191029 -0.10293353 57.35594364 -0.12048804 64.40011203 -0.1494534 C70.51314274 -0.17371291 76.62609359 -0.1813989 82.73917007 -0.18312836 C85.33468813 -0.18615449 87.93020538 -0.19418165 90.52569199 -0.20731354 C94.15685474 -0.22437659 97.78754506 -0.22249299 101.41873169 -0.21600342 C102.48909668 -0.2252182 103.55946167 -0.23443298 104.66226196 -0.243927 C112.10572096 -0.20227611 116.71058165 0.97009968 122.96609497 5.14044189 C122.96609497 5.80044189 122.96609497 6.46044189 122.96609497 7.14044189 C123.62609497 7.14044189 124.28609497 7.14044189 124.96609497 7.14044189 C124.96609497 8.13044189 124.96609497 9.12044189 124.96609497 10.14044189 C125.62609497 10.14044189 126.28609497 10.14044189 126.96609497 10.14044189 C129.20007761 16.31674684 129.71400806 21.92391222 127.14187622 28.12872314 C124.4240053 33.14550465 121.26557413 36.94316202 115.96609497 39.14044189 C113.55410957 39.39491749 113.55410957 39.39491749 110.81793213 39.40113831 C109.77774933 39.40822311 108.73756653 39.41530792 107.66586304 39.42260742 C106.53017883 39.42013 105.39449463 39.41765259 104.22439575 39.4151001 C103.02400665 39.42021103 101.82361755 39.42532196 100.58685303 39.43058777 C97.29748861 39.44210647 94.00828045 39.44455718 90.71890116 39.44202447 C87.97048357 39.44095405 85.22208918 39.44584004 82.47367656 39.45062989 C75.9875705 39.461723 69.50152234 39.46216389 63.01541138 39.45611572 C56.33070298 39.45007803 49.64620518 39.46238203 42.96153271 39.48368579 C37.21701853 39.50131818 31.47257128 39.5073005 25.72803104 39.50404805 C22.29946535 39.50223732 18.87104982 39.50485001 15.4425087 39.51876259 C11.61703497 39.5310901 7.79204909 39.52435662 3.96658325 39.51275635 C2.83494751 39.52040009 1.70331177 39.52804382 0.53738403 39.53591919 C-5.83527126 39.4931779 -10.7104701 39.16541301 -15.64328003 34.67559814 C-21.2089781 27.48974823 -21.9288724 22.21473129 -21.03390503 13.14044189 C-18.77754301 8.17644546 -14.65141489 4.08758437 -10.03390503 1.14044189 C-6.64571647 0.30741589 -3.48208526 0.01209383 0 0 Z " fill="#030303" transform="translate(239.03390502929688,270.85955810546875)"/>
<path d="M0 0 C0.94196889 -0.00085442 1.88393778 -0.00170885 2.85445118 -0.00258917 C5.99429572 -0.00422941 9.13408621 0.00125349 12.27392578 0.00672913 C14.53123473 0.00701134 16.78854377 0.0068526 19.04585266 0.00628662 C25.16296049 0.00599997 31.28004868 0.01187532 37.39715195 0.01886058 C43.79398244 0.02511616 50.1908134 0.02569966 56.58764648 0.02688599 C67.32080489 0.02963992 78.05395472 0.03588413 88.78710938 0.04481506 C99.83951786 0.05400205 110.8919244 0.06107659 121.94433594 0.06532288 C122.62625614 0.0655856 123.30817634 0.06584832 124.01076078 0.06611901 C127.43194801 0.0674241 130.85313526 0.06868779 134.27432251 0.06993091 C162.63096605 0.08028804 190.98760178 0.09796745 219.34423828 0.12025452 C214.52627563 3.33222962 211.05473596 3.26385702 205.38549805 3.25396729 C204.44598329 3.25623284 203.50646852 3.2584984 202.53848362 3.26083261 C199.37085831 3.26719404 196.20327555 3.26634188 193.03564453 3.26551819 C190.77261296 3.26850831 188.5095819 3.27191049 186.24655151 3.2756958 C180.0855724 3.28455411 173.92460715 3.28687466 167.76362228 3.28751159 C162.62902078 3.28845903 157.49442253 3.29213536 152.35982227 3.29568368 C140.94436165 3.30336884 129.52891009 3.30635167 118.11344755 3.30567833 C117.42809482 3.30563837 116.74274209 3.30559842 116.03662109 3.30555725 C115.35043532 3.30551637 114.66424955 3.30547549 113.95727026 3.30543337 C102.82984199 3.30502668 91.70244751 3.31460138 80.57502902 3.32869562 C69.15956649 3.34304107 57.74412732 3.34978346 46.32865429 3.34910184 C39.91563086 3.34884617 33.50264568 3.35173552 27.08963013 3.36227989 C21.06179552 3.37191993 15.03403605 3.37206837 9.00619888 3.36476326 C6.78815731 3.36371235 4.57011115 3.36611 2.35207748 3.37212372 C-0.6643789 3.37977542 -3.68057129 3.37524451 -6.69702148 3.36749268 C-7.58474967 3.37263624 -8.47247786 3.3777798 -9.3871069 3.38307923 C-15.42749039 3.34852585 -15.42749039 3.34852585 -17.65576172 1.12025452 C-11.72458423 0.26025223 -5.98825375 -0.02010181 0 0 Z " fill="#5D5D60" transform="translate(248.65576171875,399.87974548339844)"/>
<path d="M0 0 C0.95150643 -0.00467997 1.90301286 -0.00935994 2.88335282 -0.01418173 C6.07391174 -0.02615432 9.26404294 -0.01666545 12.4546051 -0.00723267 C14.74114737 -0.01129738 17.02768767 -0.01663869 19.31422424 -0.02316284 C25.52699167 -0.03685487 31.73960986 -0.03152972 37.95237994 -0.02202559 C44.45052672 -0.01443789 50.94866059 -0.02147221 57.44680786 -0.02618408 C69.06046028 -0.03199453 80.6740445 -0.0226621 92.28768618 -0.00740607 C102.81422539 0.00599395 113.34066534 0.00367168 123.86720276 -0.01016235 C136.09404305 -0.02622344 148.32081266 -0.03218923 160.54766327 -0.02332556 C167.01890545 -0.01864655 173.49007927 -0.01803044 179.96131706 -0.02793503 C186.04588252 -0.03659694 192.13026042 -0.03059673 198.2148056 -0.01325226 C200.44890341 -0.00928313 202.68301698 -0.01042872 204.91710854 -0.01704025 C207.96497213 -0.02522885 211.01223344 -0.01496615 214.06005859 0 C214.9457619 -0.00669217 215.8314652 -0.01338433 216.744008 -0.02027929 C221.75846707 0.02753255 225.25963567 0.56768098 229.59352112 3.38095093 C229.92352112 4.04095093 230.25352112 4.70095093 230.59352112 5.38095093 C227.83075935 4.85826627 225.26743352 4.27225506 222.59352112 3.38095093 C220.15767389 3.22624185 217.74713391 3.12763723 215.30860901 3.07333374 C214.13670297 3.04310246 214.13670297 3.04310246 212.94112206 3.01226044 C210.21208619 2.94579069 207.48296978 2.88898207 204.75367737 2.83407593 C203.2777798 2.80303646 203.2777798 2.80303646 201.77206612 2.77136993 C167.10275939 2.06862556 132.41801137 2.15754684 97.74319303 2.14213133 C87.17080808 2.13734418 76.59854872 2.11964564 66.02620167 2.09105563 C57.75431321 2.06947414 49.48246048 2.05935503 41.21054417 2.05801511 C36.30597629 2.0569712 31.40152976 2.05114277 26.49699211 2.0331955 C21.92374344 2.01676063 17.35070866 2.01453666 12.77744102 2.0233345 C11.10446855 2.02410538 9.43148459 2.01975554 7.75854111 2.00987625 C5.47483931 1.99717669 3.19189968 2.00302014 0.90820312 2.01345825 C-1.0051299 2.01125841 -1.0051299 2.01125841 -2.95711613 2.00901413 C-6.7107073 2.41375517 -9.16250421 3.49665313 -12.40647888 5.38095093 C-13.06647888 4.72095093 -13.72647888 4.06095093 -14.40647888 3.38095093 C-9.73789635 -0.22332462 -5.64103306 -0.04251524 0 0 Z " fill="#1D1D1D" transform="translate(240.40647888183594,178.61904907226563)"/>
<path d="M0 0 C15.26435522 -0.07015552 30.52870299 -0.1230202 45.79318333 -0.15543652 C52.88113871 -0.17088966 59.96899378 -0.19194932 67.05688477 -0.22631836 C73.89739367 -0.25947197 80.73779829 -0.27685488 87.57838249 -0.28463173 C90.18786191 -0.29017374 92.79733565 -0.30099585 95.40677071 -0.31719017 C99.06240274 -0.33897448 102.71760449 -0.34196642 106.37329102 -0.34057617 C107.99062134 -0.35675491 107.99062134 -0.35675491 109.640625 -0.3732605 C115.55239511 -0.34894102 119.75918784 0.20564796 125 3 C121.91572438 3.98382533 120.05392336 3.95880334 116.95643616 3.08242798 C111.51485262 1.76340759 106.27579766 1.69302632 100.69702148 1.68115234 C99.60330734 1.67110672 98.5095932 1.6610611 97.38273621 1.65071106 C93.79552702 1.62001148 90.20839202 1.60288066 86.62109375 1.5859375 C84.12288277 1.56721523 81.62467804 1.54764103 79.1264801 1.5272522 C73.24067602 1.48126157 67.35486689 1.44381349 61.46897799 1.41057932 C54.10360136 1.36846162 46.73833558 1.31294559 39.37304688 1.2578125 C26.24875836 1.1611789 13.12442133 1.07636155 0 1 C0 0.67 0 0.34 0 0 Z " fill="#878787" transform="translate(234,271)"/>
<path d="M0 0 C0.71274078 -0.00043808 1.42548157 -0.00087616 2.15982056 -0.00132751 C4.50290847 0.00075345 6.84527035 0.02405075 9.18823242 0.04760742 C10.81776031 0.05320586 12.44729326 0.05747479 14.076828 0.06047058 C18.35621188 0.07189988 22.63528808 0.10135037 26.91455078 0.13458252 C31.28503254 0.16532483 35.65556423 0.17898479 40.02612305 0.1940918 C48.59462328 0.22622209 57.1628739 0.27739503 65.73120117 0.34057617 C65.73120117 0.67057617 65.73120117 1.00057617 65.73120117 1.34057617 C64.86755951 1.34644241 64.00391785 1.35230865 63.11410522 1.35835266 C54.96304899 1.41632904 46.81226532 1.48843411 38.66147423 1.57629108 C34.47135732 1.62096097 30.28133687 1.6602244 26.09106445 1.68701172 C22.04491047 1.71307866 17.99912838 1.75350465 13.95320511 1.80376244 C12.41194927 1.82040831 10.87062915 1.83193678 9.32929611 1.83819008 C7.16518192 1.84785637 5.00201424 1.87594353 2.83813477 1.90820312 C0.99280655 1.92485771 0.99280655 1.92485771 -0.88980103 1.94184875 C-4.58927319 2.37839268 -7.06061417 3.4916246 -10.26879883 5.34057617 C-10.92879883 4.68057617 -11.58879883 4.02057617 -12.26879883 3.34057617 C-8.08799671 0.31852487 -5.11047037 -0.02647912 0 0 Z " fill="#1E1E1F" transform="translate(238.268798828125,178.659423828125)"/>
<path d="M0 0 C0.33 0.99 0.66 1.98 1 3 C-0.75 5.5 -0.75 5.5 -3 8 C-3.53625 8.598125 -4.0725 9.19625 -4.625 9.8125 C-6 11 -6 11 -8 11 C-8.33 11.99 -8.66 12.98 -9 14 C-9.99 13.67 -10.98 13.34 -12 13 C-10.38405168 10.95880212 -8.7143618 8.95927063 -7 7 C-6.34 7 -5.68 7 -5 7 C-5 6.34 -5 5.68 -5 5 C-4.34 5 -3.68 5 -3 5 C-2.690625 4.360625 -2.38125 3.72125 -2.0625 3.0625 C-1 1 -1 1 0 0 Z " fill="#484848" transform="translate(98,308)"/>
<path d="M0 0 C0.33 0.66 0.66 1.32 1 2 C0.34 2 -0.32 2 -1 2 C-1.226875 2.53625 -1.45375 3.0725 -1.6875 3.625 C-3.43382056 6.78500863 -5.6402849 9.2676983 -8 12 C-8.66 11.01 -9.32 10.02 -10 9 C-8.71034824 7.62437146 -7.37310707 6.29233607 -6 5 C-5.34 5 -4.68 5 -4 5 C-3.8453125 4.0409375 -3.8453125 4.0409375 -3.6875 3.0625 C-3.460625 2.381875 -3.23375 1.70125 -3 1 C-2.01 0.67 -1.02 0.34 0 0 Z " fill="#4F4F4F" transform="translate(111,373)"/>
<path d="M0 0 C2 2 2 2 2.265625 4.64453125 C2.25789063 6.21267578 2.25789063 6.21267578 2.25 7.8125 C2.25515625 8.85019531 2.2603125 9.88789063 2.265625 10.95703125 C1.99831735 14.0192763 1.29090101 16.22866092 0 19 C-0.33 19 -0.66 19 -1 19 C-1 16.69 -1 14.38 -1 12 C-0.34 12 0.32 12 1 12 C0.67 8.04 0.34 4.08 0 0 Z " fill="#535353" transform="translate(476,375)"/>
<path d="M0 0 C0.33 0.99 0.66 1.98 1 3 C0.236875 3.7425 -0.52625 4.485 -1.3125 5.25 C-3.95571199 7.823554 -3.95571199 7.823554 -5.6875 10.3125 C-6.3371875 11.1478125 -6.3371875 11.1478125 -7 12 C-7.66 12 -8.32 12 -9 12 C-7.55575365 8.76138697 -5.74227753 6.38030837 -3.375 3.75 C-2.74335938 3.04359375 -2.11171875 2.3371875 -1.4609375 1.609375 C-0.97882812 1.07828125 -0.49671875 0.5471875 0 0 Z " fill="#535353" transform="translate(31,382)"/>
<path d="M0 0 C0 0.99 0 1.98 0 3 C-0.9590625 3.1546875 -0.9590625 3.1546875 -1.9375 3.3125 C-2.618125 3.539375 -3.29875 3.76625 -4 4 C-4.33 4.99 -4.66 5.98 -5 7 C-6.65 7.33 -8.3 7.66 -10 8 C-3.56521739 0 -3.56521739 0 0 0 Z " fill="#363636" transform="translate(38,160)"/>
<path d="M0 0 C0.99 0.33 1.98 0.66 3 1 C0.36 3.97 -2.28 6.94 -5 10 C-5.33 9.01 -5.66 8.02 -6 7 C-4.6875 4.8125 -4.6875 4.8125 -3 3 C-2.34 3 -1.68 3 -1 3 C-0.67 2.01 -0.34 1.02 0 0 Z " fill="#4E4E4E" transform="translate(132,346)"/>
<path d="M0 0 C0.66 0 1.32 0 2 0 C1.40716379 3.39192363 0.23256811 5.2107757 -2.0625 7.75 C-2.61035156 8.36359375 -3.15820312 8.9771875 -3.72265625 9.609375 C-4.14417969 10.06828125 -4.56570312 10.5271875 -5 11 C-5.66 10.34 -6.32 9.68 -7 9 C-6.54625 8.566875 -6.0925 8.13375 -5.625 7.6875 C-3.79975666 5.89201658 -3.79975666 5.89201658 -2 3 C-1.34 3 -0.68 3 0 3 C0 2.01 0 1.02 0 0 Z " fill="#474747" transform="translate(92,393)"/>
<path d="M0 0 C4.86238823 -0.34731345 7.82718509 0.47690261 12 3 C12.33 3.66 12.66 4.32 13 5 C8.39146203 4.27991594 4.32762591 2.68704061 0 1 C0 0.67 0 0.34 0 0 Z " fill="#464646" transform="translate(458,179)"/>
<path d="M0 0 C0 0.66 0 1.32 0 2 C-0.66 2 -1.32 2 -2 2 C-2.268125 2.598125 -2.53625 3.19625 -2.8125 3.8125 C-3.98493467 5.97224808 -5.19369282 7.35790256 -7 9 C-6.39285714 3.53571429 -6.39285714 3.53571429 -4.625 1.125 C-3 0 -3 0 0 0 Z " fill="#444444" transform="translate(75,417)"/>
<path d="M0 0 C0.33 0.99 0.66 1.98 1 3 C0.01 3.33 -0.98 3.66 -2 4 C-2.33 4.66 -2.66 5.32 -3 6 C-3.33 6.66 -3.66 7.32 -4 8 C-4.99 8.33 -5.98 8.66 -7 9 C-5.44499019 5.18315774 -2.96404505 2.80804268 0 0 Z " fill="#505050" transform="translate(46,366)"/>
<path d="M0 0 C-3.33333333 1.66666667 -6.66666667 3.33333333 -10 5 C-10.66 4.34 -11.32 3.68 -12 3 C-7.89542386 0.01485372 -5.02254631 -0.2954439 0 0 Z " fill="#4E4E4E" transform="translate(238,179)"/>
<path d="M0 0 C0.99 0.66 1.98 1.32 3 2 C-1.48074195 5.36055646 -4.60550707 5.27429625 -10 5 C-10 4.67 -10 4.34 -10 4 C-7.69 4 -5.38 4 -3 4 C-3 3.34 -3 2.68 -3 2 C-2.01 1.34 -1.02 0.68 0 0 Z " fill="#4B4B4B" transform="translate(357,305)"/>
<path d="M0 0 C0.33 0.66 0.66 1.32 1 2 C-0.98 4.31 -2.96 6.62 -5 9 C-5.66 8.67 -6.32 8.34 -7 8 C-4.69 5.36 -2.38 2.72 0 0 Z " fill="#5F5F5F" transform="translate(69,340)"/>
<path d="M0 0 C0.598125 0.226875 1.19625 0.45375 1.8125 0.6875 C1.1525 0.6875 0.4925 0.6875 -0.1875 0.6875 C-0.455625 1.30625 -0.72375 1.925 -1 2.5625 C-2.1875 4.6875 -2.1875 4.6875 -5.1875 6.6875 C-5.1875 2.6875 -5.1875 2.6875 -3.9375 0.875 C-2.1875 -0.3125 -2.1875 -0.3125 0 0 Z " fill="#454545" transform="translate(166.1875,307.3125)"/>
<path d="M0 0 C0.33 1.32 0.66 2.64 1 4 C0.01 4.33 -0.98 4.66 -2 5 C-2.73323796 7.01508358 -2.73323796 7.01508358 -3 9 C-3.66 9 -4.32 9 -5 9 C-3.7508258 5.54074837 -2.32472205 2.85306797 0 0 Z " fill="#4C4C4C" transform="translate(27,168)"/>
<path d="M0 0 C0.33 1.32 0.66 2.64 1 4 C0.34 4 -0.32 4 -1 4 C-1 4.66 -1 5.32 -1 6 C-2.32 6.33 -3.64 6.66 -5 7 C-3.47793991 4.37098712 -2.15634036 2.15634036 0 0 Z " fill="#515151" transform="translate(52,359)"/>
<path d="M0 0 C1.60332791 -0.08121924 3.20784026 -0.13929134 4.8125 -0.1875 C6.15248047 -0.23970703 6.15248047 -0.23970703 7.51953125 -0.29296875 C10.41647515 0.04918998 11.22555028 0.75393573 13 3 C11.7315625 2.7834375 11.7315625 2.7834375 10.4375 2.5625 C6.96406851 1.9941203 3.48554338 1.48797607 0 1 C0 0.67 0 0.34 0 0 Z " fill="#464646" transform="translate(346,272)"/>
<path d="M0 0 C2 1.375 2 1.375 4 3 C4 3.66 4 4.32 4 5 C4.66 5 5.32 5 6 5 C6 5.66 6 6.32 6 7 C5.01 7 4.02 7 3 7 C3 6.01 3 5.02 3 4 C2.01 4 1.02 4 0 4 C0 2.68 0 1.36 0 0 Z " fill="#616161" transform="translate(166,267)"/>
</svg>
